# xmcd
#
# Track frame offsets:
#	150
#	34134
#	81953
#	106235
#	160532
#
# Disc length: 2426 seconds
#
# Revision: 1
# Processed by: cddbd v1.5.2PL0 Copyright (c) Steve Scherf et al.
# Submitted via: audiograbber 1.83.01
#
DISCID=2f097805
DTITLE=SaRon Crenshaw - Drivin`
DYEAR=1900
DGENRE=
TTITLE0=Drivin`
TTITLE1=World of misery
TTITLE2=Been a long time
TTITLE3=Pilot light
TTITLE4=Footprints in the snow
EXTD=
EXTT0=
EXTT1=
EXTT2=
EXTT3=
EXTT4=
PLAYORDER=
